<svg xmlns="http://www.w3.org/2000/svg" xmlns:xlink="http://www.w3.org/1999/xlink" width="250" height="250" viewBox="0 0 250 250"><defs><circle id="a" cx="125" cy="125" r="125"/></defs><g fill="none" fill-rule="evenodd"><mask id="b" fill="#fff"><use xlink:href="#a"/></mask><use fill="#F0F0F0" fill-rule="nonzero" xlink:href="#a"/><g mask="url(#b)"><path fill="#70432C" d="M187.5 195a47.448 47.448 0 0 0-7.302-25.337l-2.618-4.183a47.448 47.448 0 0 1-7.302-25.337V95.572C170.278 70.954 150.231 51 125.5 51c-24.731 0-44.778 19.954-44.778 44.572v44.571a47.448 47.448 0 0 1-7.302 25.337l-2.618 4.183A47.448 47.448 0 0 0 63.5 195s13.778 24 62 24 62-24 62-24z"/><path fill="#5C3724" d="M89.306 70a45.01 45.01 0 0 0-7.862 25.434v44.621a48.116 48.116 0 0 1-7.184 25.365l-2.576 4.188a48.116 48.116 0 0 0-7.184 25.365S78.056 219 125.5 219V98.866c-26.264 0-34.431-14.69-36.194-28.866z"/><path fill="#787D82" d="M179.636 192.22L155.808 189l-1.646 3.843c-6.805 15.984-25.155 23.372-40.985 16.5-7.337-3.185-13.183-9.091-16.34-16.5L95.19 189l-23.828 3.22c-10.214 1.37-17.85 10.16-17.863 20.564V250h144v-37.216c-.014-10.403-7.65-19.193-17.864-20.564z"/><path fill="#FEDAC6" d="M125 212c12.552.006 23.9-7.33 28.844-18.65l1.656-3.756-3.795-.508c-3.457-.444-6.035-3.347-6.004-6.77V168H104.3v14.52c.03 3.421-2.546 6.325-6.004 6.769l-3.795.508 1.656 3.757c5.007 11.24 16.34 18.487 28.844 18.446z"/><path fill="#F5C4B0" d="M146.5 183.899a6.35 6.35 0 0 1-.412-2.272V167h-41.176v14.765a6.348 6.348 0 0 1-.412 2.271 46.334 46.334 0 0 0 42-.137z"/><g fill="#FEDAC6"><path d="M163.057 109.08h-3.414v20.631h3.414c5.658 0 10.243-4.618 10.243-10.315 0-5.698-4.585-10.316-10.243-10.316zM77.7 119.396c0 5.697 4.585 10.315 10.243 10.315h3.414v-20.63h-3.414c-5.658 0-10.243 4.617-10.243 10.315z"/></g><path fill="#000" d="M128.5 137H118a3.508 3.508 0 0 1-2.607-1.153 3.44 3.44 0 0 1-.872-2.69l3.5-31.157 6.954.765-3.066 27.31h6.591V137z"/><path fill="#FEDAC6" d="M160.5 92.063v36.334a54.827 54.827 0 0 1-7.866 28.29l-5.727 9.523A24.406 24.406 0 0 1 126 178a24.406 24.406 0 0 1-20.907-11.79l-5.727-9.522a54.825 54.825 0 0 1-7.866-28.291V95.5S122.55 88.625 126 68c4.912 14.726 18.93 24.506 34.5 24.063z"/><g fill="#EBEBEB"><path d="M91.587 103.328h27.53v10.078c0 7.42-6.163 13.436-13.765 13.436s-13.765-6.016-13.765-13.436v-10.078zM132.883 103.328h27.53v10.078c0 7.42-6.163 13.436-13.765 13.436s-13.765-6.016-13.765-13.436v-10.078z"/></g><path fill="#70432C" d="M146.57 139.74a13.467 13.467 0 0 0-8.133-2.74h-24.874a13.47 13.47 0 0 0-8.134 2.74l-9.929 7.536a54.998 54.998 0 0 0 4.473 9.488l5.626 9.489c6.815 11.464 21.536 15.174 32.879 8.282a24.072 24.072 0 0 0 8.194-8.282l5.626-9.489a55.204 55.204 0 0 0 4.202-9.488l-9.93-7.536z"/><path fill="#717478" d="M67.5 194c-8.368 2.887-13.975 10.602-14 19.27V250h14v-56z"/><path fill="#5C3724" d="M110.34 137a13.326 13.326 0 0 0-5.838 2.482L94.5 146.96a54.221 54.221 0 0 0 4.506 9.416l5.667 9.416A23.879 23.879 0 0 0 111.5 173a62.897 62.897 0 0 1-1.16-36z"/><path fill="#000" d="M57.323 250H50.5v-36.73c.068-11.995 9.068-22.136 20.934-23.615l27.26-3.687a3.418 3.418 0 0 0 2.982-3.417V168h6.824v14.52c.044 5.146-3.784 9.554-8.908 10.22l-27.28 3.69c-8.513 1.063-14.94 8.306-14.992 16.862V250h.003zM200.5 250h-6.823v-36.73c-.052-8.534-6.48-15.777-14.954-16.836l-27.332-3.694c-5.107-.666-8.935-5.074-8.89-10.25L142.5 168h6.824v14.52a3.423 3.423 0 0 0 2.968 3.448l27.307 3.69c11.832 1.476 20.83 11.617 20.9 23.592L200.5 250zM163.9 133h-3.4v-6.75h3.4c3.75 0 6.8-3.027 6.8-6.75s-3.05-6.75-6.8-6.75h-3.4V106h3.4c7.5 0 13.6 6.055 13.6 13.5s-6.1 13.5-13.6 13.5zM90.5 133h-3.4c-7.5 0-13.6-6.055-13.6-13.5S79.6 106 87.1 106h3.4v6.75h-3.4c-3.75 0-6.8 3.027-6.8 6.75s3.05 6.75 6.8 6.75h3.4V133z"/><path fill="#000" d="M125.515 216h-.037c-13.854 0-26.327-8.292-31.784-21.13l-2.194-5.144L97.8 187l2.194 5.148c4.377 10.292 14.378 16.943 25.487 16.943h.03c11.11 0 21.115-6.651 25.495-16.943L153.2 187l6.3 2.726-2.194 5.148c-5.46 12.834-17.94 21.126-31.79 21.126zM128.5 137H118a3.508 3.508 0 0 1-2.607-1.153 3.44 3.44 0 0 1-.872-2.69l3.5-31.157 6.954.765-3.066 27.31h6.591V137z"/><path fill="#000" fill-rule="nonzero" d="M125 181c-9.603 0-18.637-5.118-23.58-13.357l-5.663-9.454a58.067 58.067 0 0 1-8.257-29.832v-32.65a3.416 3.416 0 0 1 2.666-3.33c.283-.065 28.483-6.584 31.47-24.523a3.414 3.414 0 0 1 3.098-2.842c1.51-.13 3.003.835 3.501 2.326 4.415 13.292 16.739 21.897 30.757 21.549.917-.072 1.81.32 2.475.962a3.406 3.406 0 0 1 1.033 2.446v36.062a58.025 58.025 0 0 1-8.26 29.835l-5.66 9.45C143.642 175.883 134.605 181 125 181zM94.318 98.34v30.014c0 9.27 2.523 18.372 7.286 26.321l5.662 9.454c3.716 6.2 10.51 10.048 17.734 10.048 7.22 0 14.019-3.849 17.735-10.044l5.659-9.45a51.225 51.225 0 0 0 7.288-26.325V95.653c-12.64-.768-23.846-7.64-30.28-18.267-7.26 13.019-24.419 19.048-31.084 20.955z"/><path fill="#000" fill-rule="nonzero" d="M105.5 131c-9.374 0-17-7.726-17-17.222v-10.334c0-1.9 1.523-3.444 3.4-3.444h27.2c1.877 0 3.4 1.543 3.4 3.444v10.334c0 9.496-7.626 17.222-17 17.222zm-10.2-24.111v6.889c0 5.697 4.577 10.333 10.2 10.333 5.623 0 10.2-4.636 10.2-10.333v-6.89H95.3zM145.5 131c-9.374 0-17-7.726-17-17.222v-10.334c0-1.9 1.52-3.444 3.4-3.444h27.2c1.88 0 3.4 1.543 3.4 3.444v10.334c0 9.496-7.626 17.222-17 17.222zm-10.2-24.111v6.889c0 5.697 4.577 10.333 10.2 10.333 5.623 0 10.2-4.636 10.2-10.333v-6.89h-20.4z"/><path fill="#000" d="M118.5 100h14v6h-14z"/><path fill="#000" d="M173.5 113h-6.857V95.894c0-22.637-18.456-41.052-41.143-41.052S84.357 73.257 84.357 95.895V113H77.5V95.895C77.5 69.485 99.031 48 125.5 48s48 21.484 48 47.895V113zM60.5 195a51.54 51.54 0 0 1 7.793-27.33l2.599-4.201a44.591 44.591 0 0 0 6.75-23.666V126H84.5v13.8a51.537 51.537 0 0 1-7.793 27.325l-2.599 4.202a44.591 44.591 0 0 0-6.75 23.666L60.5 195zM190.5 195l-6.857-.007a44.59 44.59 0 0 0-6.747-23.655l-2.61-4.223a51.542 51.542 0 0 1-7.786-27.32V126h6.857v13.8a44.594 44.594 0 0 0 6.747 23.658l2.61 4.223A51.532 51.532 0 0 1 190.5 195zM96.628 149.997l-4.128-5.332 10.071-7.332c2.96-2.15 6.62-3.333 10.312-3.333h25.23c3.695 0 7.36 1.183 10.312 3.333l10.075 7.335-4.128 5.332-10.071-7.332c-1.774-1.29-3.967-2-6.187-2h-25.23c-2.217 0-4.414.71-6.187 2l-10.069 7.329z"/><path fill="#000" d="M115.5 148h20v6h-20z"/></g></g></svg>
