<svg xmlns="http://www.w3.org/2000/svg" viewBox="0 0 48 50"><path fill="#fe2d5b" d="M39.964 18.432c-.192-.476-.284-.938-.517-1.392l4.238-7.648-1.838-1.87-1.387-1.401-1.86-1.869-8.193 4.727a.461.461 0 0 0-.144-.029L27.635 0H20.365l-2.628 8.95a.435.435 0 0 0-.144.029L9.4 4.252l-1.861 1.87-1.387 1.401-1.838 1.87 4.238 7.648c-.232.454-.324.916-.517 1.392L0 20.865V28.135l7.626 2.314c.224.682.245 1.342.547 1.984l-3.921 7.184 1.87 1.877 1.401 1.417 1.869 1.901 7.181-3.859c.462.218.936.539 1.419.716L20.365 50H27.635l2.373-8.331c.483-.177.957-.498 1.419-.716l7.181 3.859 1.869-1.901 1.401-1.417 1.87-1.877-3.921-7.184c.302-.643.323-1.303.547-1.984L48 28.135V20.865l-8.036-2.433zM24 33.475c-4.736-.261-8.5-4.174-8.5-8.975 0-4.801 3.764-8.714 8.5-8.975 4.736.261 8.5 4.173 8.5 8.975 0 4.801-3.764 8.714-8.5 8.975z"/></svg>
