
<svg version="1.1" xmlns="http://www.w3.org/2000/svg" width="32" height="32" viewBox="0 0 32 32">
<path fill="#fe2d5b" d="M21.701 29.52c-1.67 0.724-3.615 1.146-5.658 1.146-0.015 0-0.030-0-0.046-0h0.002c-0.013 0-0.028 0-0.043 0-2.043 0-3.988-0.421-5.753-1.182l0.094 0.036c-1.815-0.779-3.364-1.842-4.667-3.151l-0.001-0.001c-1.309-1.303-2.373-2.852-3.115-4.573l-0.036-0.095c-0.724-1.67-1.146-3.615-1.146-5.658 0-0.015 0-0.030 0-0.046v0.002c0-0.286 0.101-0.532 0.301-0.73 0.181-0.187 0.434-0.303 0.714-0.303 0.006 0 0.011 0 0.016 0h-0.001c0.288 0 0.532 0.101 0.731 0.303 0.202 0.2 0.301 0.444 0.301 0.73 0 1.72 0.334 3.351 1.003 4.898 0.66 1.56 1.569 2.892 2.692 4.009l0.001 0.001c1.121 1.126 2.451 2.044 3.927 2.69l0.082 0.032c1.43 0.616 3.094 0.974 4.842 0.974 0.020 0 0.040-0 0.060-0h-0.003c1.72 0 3.351-0.334 4.898-1.003 1.56-0.66 2.892-1.569 4.009-2.692l0.001-0.001c1.126-1.121 2.044-2.451 2.69-3.927l0.032-0.082c0.616-1.43 0.974-3.094 0.974-4.842 0-0.020-0-0.040-0-0.059v0.003c0-1.72-0.334-3.351-1.003-4.898-0.66-1.56-1.569-2.892-2.692-4.009l-0.001-0.001c-1.121-1.126-2.451-2.044-3.927-2.69l-0.082-0.032c-1.43-0.616-3.094-0.974-4.842-0.974-0.020 0-0.040 0-0.060 0h0.003c-0.005 0-0.011 0-0.017 0-0.279 0-0.532-0.115-0.712-0.301l-0-0c-0.187-0.181-0.303-0.434-0.303-0.714 0-0.006 0-0.011 0-0.016v0.001c0-0.288 0.101-0.532 0.303-0.731 0.181-0.186 0.433-0.301 0.712-0.301 0.006 0 0.012 0 0.018 0h-0.001c1.985 0 3.887 0.381 5.701 1.146 1.756 0.744 3.313 1.797 4.668 3.151 1.31 1.304 2.373 2.854 3.115 4.575l0.036 0.095c0.764 1.813 1.146 3.714 1.146 5.7s-0.381 3.887-1.146 5.701c-0.779 1.815-1.842 3.364-3.151 4.667l-0.001 0.001c-1.304 1.31-2.854 2.373-4.575 3.115l-0.095 0.036z"></path>
</svg>
