<svg xmlns="http://www.w3.org/2000/svg" width="119" height="26"><g fill="none" fill-rule="evenodd"><path fill="#000F48" d="M27.557.86h6.902L26.945 25h-5.882l-3.57-14.688h-.068L13.651 25H7.769L.255.86h6.902l3.502 13.464h.102L13.991.86h6.8l3.162 13.464h.102L27.557.86zM41.667 25V6.606h-6.12V.86h18.666v5.746h-6.12V25h-6.426zm27.88 0l-5.168-8.704-1.36 1.666V25h-6.426V.86h6.426v8.126h.068L68.969.86h8.16l-8.5 10.302L77.469 25h-7.922z"/><path fill="#FE2D5B" d="M78.149 10.312L79.135.86h5.848l-2.482 9.452zM91.681 25V9.258l-3.196 2.38-2.992-4.692 7.582-5.304h4.998V25zm22.44-12.648c2.38.884 4.148 2.992 4.148 6.188 0 4.284-3.842 6.8-8.738 6.8-4.828 0-8.67-2.55-8.67-6.8 0-3.196 1.836-5.304 4.148-6.188v-.034c-1.564-.646-2.822-2.55-2.822-4.76 0-4.182 3.264-6.256 7.344-6.256s7.378 2.108 7.378 6.256c0 2.21-1.258 4.08-2.788 4.76v.034zm-4.59-6.256c-.986 0-1.768.884-1.768 2.04 0 1.088.748 1.938 1.768 1.938s1.802-.85 1.802-1.938c0-1.156-.782-2.04-1.802-2.04zm0 14.178c1.36 0 2.38-1.19 2.38-2.618s-1.02-2.516-2.38-2.516c-1.36 0-2.38 1.088-2.38 2.516 0 1.462 1.054 2.618 2.38 2.618z"/></g></svg>